<svg width="1715" height="228" viewBox="0 0 1715 228" fill="none" xmlns="http://www.w3.org/2000/svg">
<g clip-path="url(#clip0_502_7)">
<path d="M173.515 93.9443L123.561 59.5518L39.9506 118.07L13.7994 136.394C5.78826 142.011 1 151.173 1 160.98V197.859C1 220.925 26.8289 234.507 45.8438 221.478L59.2878 212.269L103.395 182.067L117.622 172.306L173.469 134.046C187.558 124.423 187.604 103.613 173.515 93.9443Z" fill="#003785"/>
<g opacity="0.67">
<path d="M173.515 93.9445L123.561 59.552L45.8899 6.0985C26.875 -6.97711 1 6.60494 1 29.7175V75.2519C1 85.0586 5.78825 94.2668 13.8454 99.8838L39.9966 118.116L88.2014 151.818C96.5809 158.862 101.922 169.452 101.922 181.238C101.922 181.883 101.922 182.527 101.876 183.172L117.668 172.352L173.515 134.092C187.558 124.424 187.604 103.613 173.515 93.9445Z" fill="#1465BB"/>
</g>
<path d="M242.3 165C241.3 165 240.45 164.65 239.75 163.95C239.05 163.25 238.7 162.4 238.7 161.4V63.75C238.7 62.65 239.05 61.75 239.75 61.05C240.45 60.35 241.3 60 242.3 60H278.9C289 60 297.3 61.55 303.8 64.65C310.4 67.75 315.35 72.35 318.65 78.45C322.05 84.55 323.8 92 323.9 100.8C324.1 105.2 324.2 109.1 324.2 112.5C324.2 115.9 324.1 119.75 323.9 124.05C323.7 133.35 322 141.05 318.8 147.15C315.6 153.15 310.75 157.65 304.25 160.65C297.85 163.55 289.65 165 279.65 165H242.3ZM259.55 147.75H278.9C284.5 147.75 289.05 146.95 292.55 145.35C296.05 143.75 298.6 141.2 300.2 137.7C301.9 134.1 302.8 129.4 302.9 123.6C303 120.6 303.05 118 303.05 115.8C303.15 113.5 303.15 111.25 303.05 109.05C303.05 106.75 303 104.15 302.9 101.25C302.7 93.05 300.65 87 296.75 83.1C292.85 79.2 286.65 77.25 278.15 77.25H259.55V147.75ZM347.769 165C346.769 165 345.919 164.65 345.219 163.95C344.519 163.25 344.169 162.4 344.169 161.4V63.6C344.169 62.6 344.519 61.75 345.219 61.05C345.919 60.35 346.769 60 347.769 60H361.869C362.969 60 363.819 60.35 364.419 61.05C365.119 61.75 365.469 62.6 365.469 63.6V161.4C365.469 162.4 365.119 163.25 364.419 163.95C363.819 164.65 362.969 165 361.869 165H347.769ZM406.243 165C404.743 165 403.543 164.6 402.643 163.8C401.843 162.9 401.293 161.8 400.993 160.5L383.143 64.35C383.143 64.05 383.093 63.8 382.993 63.6C382.993 63.4 382.993 63.25 382.993 63.15C382.993 62.25 383.293 61.5 383.893 60.9C384.593 60.3 385.343 60 386.143 60H399.343C401.843 60 403.243 61 403.543 63L415.993 130.95L429.493 87C429.793 86.2 430.293 85.4 430.993 84.6C431.793 83.7 432.943 83.25 434.443 83.25H442.543C444.143 83.25 445.293 83.7 445.993 84.6C446.693 85.4 447.143 86.2 447.343 87L460.993 130.8L473.443 63C473.743 61 475.143 60 477.643 60H490.843C491.643 60 492.343 60.3 492.943 60.9C493.543 61.5 493.843 62.25 493.843 63.15C493.843 63.25 493.843 63.4 493.843 63.6C493.843 63.8 493.793 64.05 493.693 64.35L475.843 160.5C475.643 161.8 475.093 162.9 474.193 163.8C473.293 164.6 472.093 165 470.593 165H460.543C459.043 165 457.843 164.6 456.943 163.8C456.143 163 455.593 162.15 455.293 161.25L438.493 111.15L421.693 161.25C421.293 162.15 420.693 163 419.893 163.8C419.093 164.6 417.893 165 416.293 165H406.243ZM515.054 165C514.054 165 513.204 164.65 512.504 163.95C511.804 163.25 511.454 162.4 511.454 161.4V63.75C511.454 62.65 511.804 61.75 512.504 61.05C513.204 60.35 514.054 60 515.054 60H581.054C582.154 60 583.054 60.35 583.754 61.05C584.454 61.75 584.804 62.65 584.804 63.75V73.65C584.804 74.65 584.454 75.5 583.754 76.2C583.054 76.9 582.154 77.25 581.054 77.25H531.704V103.8H577.754C578.854 103.8 579.754 104.15 580.454 104.85C581.154 105.45 581.504 106.3 581.504 107.4V116.7C581.504 117.8 581.154 118.7 580.454 119.4C579.754 120 578.854 120.3 577.754 120.3H531.704V147.75H582.254C583.354 147.75 584.254 148.1 584.954 148.8C585.654 149.5 586.004 150.4 586.004 151.5V161.4C586.004 162.4 585.654 163.25 584.954 163.95C584.254 164.65 583.354 165 582.254 165H515.054ZM641.214 166.5C631.914 166.5 624.114 165.15 617.814 162.45C611.614 159.65 606.864 156.05 603.564 151.65C600.364 147.15 598.664 142.45 598.464 137.55C598.464 136.65 598.764 135.9 599.364 135.3C599.964 134.7 600.714 134.4 601.614 134.4H614.964C616.264 134.4 617.214 134.7 617.814 135.3C618.514 135.8 619.114 136.45 619.614 137.25C620.214 139.15 621.364 141.05 623.064 142.95C624.764 144.75 627.064 146.25 629.964 147.45C632.964 148.65 636.714 149.25 641.214 149.25C648.414 149.25 653.764 148.05 657.264 145.65C660.864 143.25 662.664 140 662.664 135.9C662.664 133 661.714 130.7 659.814 129C657.914 127.2 654.964 125.6 650.964 124.2C647.064 122.7 641.864 121.15 635.364 119.55C627.864 117.75 621.564 115.6 616.464 113.1C611.464 110.5 607.664 107.25 605.064 103.35C602.564 99.45 601.314 94.5 601.314 88.5C601.314 82.7 602.864 77.55 605.964 73.05C609.164 68.55 613.664 65 619.464 62.4C625.364 59.8 632.364 58.5 640.464 58.5C646.964 58.5 652.714 59.4 657.714 61.2C662.714 62.9 666.864 65.2 670.164 68.1C673.464 70.9 675.964 73.95 677.664 77.25C679.464 80.45 680.414 83.6 680.514 86.7C680.514 87.5 680.214 88.25 679.614 88.95C679.114 89.55 678.364 89.85 677.364 89.85H663.414C662.614 89.85 661.814 89.65 661.014 89.25C660.214 88.85 659.564 88.1 659.064 87C658.464 83.9 656.514 81.25 653.214 79.05C649.914 76.85 645.664 75.75 640.464 75.75C635.064 75.75 630.714 76.75 627.414 78.75C624.114 80.75 622.464 83.85 622.464 88.05C622.464 90.85 623.264 93.2 624.864 95.1C626.564 96.9 629.214 98.5 632.814 99.9C636.514 101.3 641.364 102.8 647.364 104.4C655.864 106.3 662.814 108.5 668.214 111C673.614 113.5 677.564 116.7 680.064 120.6C682.564 124.4 683.814 129.25 683.814 135.15C683.814 141.75 682.014 147.4 678.414 152.1C674.914 156.7 669.964 160.25 663.564 162.75C657.164 165.25 649.714 166.5 641.214 166.5ZM738.882 165C737.882 165 737.032 164.65 736.332 163.95C735.632 163.25 735.282 162.4 735.282 161.4V63.75C735.282 62.65 735.632 61.75 736.332 61.05C737.032 60.35 737.882 60 738.882 60H779.082C786.882 60 793.682 61.25 799.482 63.75C805.282 66.15 809.782 69.85 812.982 74.85C816.182 79.75 817.782 85.9 817.782 93.3C817.782 100.8 816.182 107 812.982 111.9C809.782 116.7 805.282 120.3 799.482 122.7C793.682 125.1 786.882 126.3 779.082 126.3H756.732V161.4C756.732 162.4 756.382 163.25 755.682 163.95C755.082 164.65 754.232 165 753.132 165H738.882ZM756.432 109.65H778.332C784.132 109.65 788.582 108.3 791.682 105.6C794.782 102.8 796.332 98.7 796.332 93.3C796.332 88.3 794.882 84.3 791.982 81.3C789.082 78.2 784.532 76.65 778.332 76.65H756.432V109.65ZM821.117 165C820.317 165 819.567 164.7 818.867 164.1C818.267 163.5 817.967 162.75 817.967 161.85C817.967 161.45 818.067 161 818.267 160.5L854.417 63.75C854.717 62.75 855.267 61.9 856.067 61.2C856.967 60.4 858.167 60 859.667 60H876.017C877.517 60 878.667 60.4 879.467 61.2C880.267 61.9 880.867 62.75 881.267 63.75L917.417 160.5C917.517 161 917.567 161.45 917.567 161.85C917.567 162.75 917.267 163.5 916.667 164.1C916.067 164.7 915.367 165 914.567 165H901.517C900.117 165 899.067 164.7 898.367 164.1C897.767 163.4 897.367 162.75 897.167 162.15L890.117 143.85H845.567L838.517 162.15C838.317 162.75 837.867 163.4 837.167 164.1C836.567 164.7 835.567 165 834.167 165H821.117ZM850.817 126.6H884.867L867.767 80.25L850.817 126.6ZM935.171 165C934.171 165 933.321 164.65 932.621 163.95C931.921 163.25 931.571 162.4 931.571 161.4V63.75C931.571 62.65 931.921 61.75 932.621 61.05C933.321 60.35 934.171 60 935.171 60H946.721C948.121 60 949.121 60.35 949.721 61.05C950.421 61.65 950.871 62.1 951.071 62.4L994.271 129.6V63.75C994.271 62.65 994.571 61.75 995.171 61.05C995.871 60.35 996.771 60 997.871 60H1010.47C1011.57 60 1012.47 60.35 1013.17 61.05C1013.87 61.75 1014.22 62.65 1014.22 63.75V161.25C1014.22 162.35 1013.87 163.25 1013.17 163.95C1012.47 164.65 1011.62 165 1010.62 165H998.921C997.521 165 996.521 164.65 995.921 163.95C995.321 163.25 994.871 162.8 994.571 162.6L951.521 96.9V161.4C951.521 162.4 951.171 163.25 950.471 163.95C949.771 164.65 948.871 165 947.771 165H935.171ZM1041.23 165C1040.23 165 1039.38 164.65 1038.68 163.95C1037.98 163.25 1037.63 162.4 1037.63 161.4V63.75C1037.63 62.65 1037.98 61.75 1038.68 61.05C1039.38 60.35 1040.23 60 1041.23 60H1107.23C1108.33 60 1109.23 60.35 1109.93 61.05C1110.63 61.75 1110.98 62.65 1110.98 63.75V73.65C1110.98 74.65 1110.63 75.5 1109.93 76.2C1109.23 76.9 1108.33 77.25 1107.23 77.25H1057.88V103.8H1103.93C1105.03 103.8 1105.93 104.15 1106.63 104.85C1107.33 105.45 1107.68 106.3 1107.68 107.4V116.7C1107.68 117.8 1107.33 118.7 1106.63 119.4C1105.93 120 1105.03 120.3 1103.93 120.3H1057.88V147.75H1108.43C1109.53 147.75 1110.43 148.1 1111.13 148.8C1111.83 149.5 1112.18 150.4 1112.18 151.5V161.4C1112.18 162.4 1111.83 163.25 1111.13 163.95C1110.43 164.65 1109.53 165 1108.43 165H1041.23ZM1134.54 165C1133.54 165 1132.69 164.65 1131.99 163.95C1131.29 163.25 1130.94 162.4 1130.94 161.4V63.6C1130.94 62.6 1131.29 61.75 1131.99 61.05C1132.69 60.35 1133.54 60 1134.54 60H1148.49C1149.49 60 1150.34 60.35 1151.04 61.05C1151.74 61.75 1152.09 62.6 1152.09 63.6V147.15H1199.64C1200.74 147.15 1201.64 147.5 1202.34 148.2C1203.04 148.9 1203.39 149.8 1203.39 150.9V161.4C1203.39 162.4 1203.04 163.25 1202.34 163.95C1201.64 164.65 1200.74 165 1199.64 165H1134.54ZM1238.01 165C1237.21 165 1236.46 164.7 1235.76 164.1C1235.16 163.5 1234.86 162.75 1234.86 161.85C1234.86 161.45 1234.96 161 1235.16 160.5L1271.31 63.75C1271.61 62.75 1272.16 61.9 1272.96 61.2C1273.86 60.4 1275.06 60 1276.56 60H1292.91C1294.41 60 1295.56 60.4 1296.36 61.2C1297.16 61.9 1297.76 62.75 1298.16 63.75L1334.31 160.5C1334.41 161 1334.46 161.45 1334.46 161.85C1334.46 162.75 1334.16 163.5 1333.56 164.1C1332.96 164.7 1332.26 165 1331.46 165H1318.41C1317.01 165 1315.96 164.7 1315.26 164.1C1314.66 163.4 1314.26 162.75 1314.06 162.15L1307.01 143.85H1262.46L1255.41 162.15C1255.21 162.75 1254.76 163.4 1254.06 164.1C1253.46 164.7 1252.46 165 1251.06 165H1238.01ZM1267.71 126.6H1301.76L1284.66 80.25L1267.71 126.6ZM1352.07 165C1351.07 165 1350.22 164.65 1349.52 163.95C1348.82 163.25 1348.47 162.4 1348.47 161.4V63.75C1348.47 62.65 1348.82 61.75 1349.52 61.05C1350.22 60.35 1351.07 60 1352.07 60H1388.67C1398.77 60 1407.07 61.55 1413.57 64.65C1420.17 67.75 1425.12 72.35 1428.42 78.45C1431.82 84.55 1433.57 92 1433.67 100.8C1433.87 105.2 1433.97 109.1 1433.97 112.5C1433.97 115.9 1433.87 119.75 1433.67 124.05C1433.47 133.35 1431.77 141.05 1428.57 147.15C1425.37 153.15 1420.52 157.65 1414.02 160.65C1407.62 163.55 1399.42 165 1389.42 165H1352.07ZM1369.32 147.75H1388.67C1394.27 147.75 1398.82 146.95 1402.32 145.35C1405.82 143.75 1408.37 141.2 1409.97 137.7C1411.67 134.1 1412.57 129.4 1412.67 123.6C1412.77 120.6 1412.82 118 1412.82 115.8C1412.92 113.5 1412.92 111.25 1412.82 109.05C1412.82 106.75 1412.77 104.15 1412.67 101.25C1412.47 93.05 1410.42 87 1406.52 83.1C1402.62 79.2 1396.42 77.25 1387.92 77.25H1369.32V147.75ZM1457.68 165C1456.58 165 1455.68 164.65 1454.98 163.95C1454.28 163.25 1453.93 162.4 1453.93 161.4V63.75C1453.93 62.65 1454.28 61.75 1454.98 61.05C1455.68 60.35 1456.58 60 1457.68 60H1469.53C1470.93 60 1471.98 60.4 1472.68 61.2C1473.38 61.9 1473.83 62.45 1474.03 62.85L1502.98 116.85L1532.23 62.85C1532.43 62.45 1532.88 61.9 1533.58 61.2C1534.28 60.4 1535.33 60 1536.73 60H1548.43C1549.53 60 1550.43 60.35 1551.13 61.05C1551.83 61.75 1552.18 62.65 1552.18 63.75V161.4C1552.18 162.4 1551.83 163.25 1551.13 163.95C1550.43 164.65 1549.53 165 1548.43 165H1535.83C1534.73 165 1533.83 164.65 1533.13 163.95C1532.53 163.25 1532.23 162.4 1532.23 161.4V96.45L1511.23 136.5C1510.73 137.4 1510.08 138.2 1509.28 138.9C1508.48 139.5 1507.43 139.8 1506.13 139.8H1499.98C1498.58 139.8 1497.48 139.5 1496.68 138.9C1495.98 138.2 1495.38 137.4 1494.88 136.5L1473.88 96.45V161.4C1473.88 162.4 1473.53 163.25 1472.83 163.95C1472.13 164.65 1471.28 165 1470.28 165H1457.68ZM1579.12 165C1578.12 165 1577.27 164.65 1576.57 163.95C1575.87 163.25 1575.52 162.4 1575.52 161.4V63.6C1575.52 62.6 1575.87 61.75 1576.57 61.05C1577.27 60.35 1578.12 60 1579.12 60H1593.22C1594.32 60 1595.17 60.35 1595.77 61.05C1596.47 61.75 1596.82 62.6 1596.82 63.6V161.4C1596.82 162.4 1596.47 163.25 1595.77 163.95C1595.17 164.65 1594.32 165 1593.22 165H1579.12ZM1623.94 165C1622.94 165 1622.09 164.65 1621.39 163.95C1620.69 163.25 1620.34 162.4 1620.34 161.4V63.75C1620.34 62.65 1620.69 61.75 1621.39 61.05C1622.09 60.35 1622.94 60 1623.94 60H1635.49C1636.89 60 1637.89 60.35 1638.49 61.05C1639.19 61.65 1639.64 62.1 1639.84 62.4L1683.04 129.6V63.75C1683.04 62.65 1683.34 61.75 1683.94 61.05C1684.64 60.35 1685.54 60 1686.64 60H1699.24C1700.34 60 1701.24 60.35 1701.94 61.05C1702.64 61.75 1702.99 62.65 1702.99 63.75V161.25C1702.99 162.35 1702.64 163.25 1701.94 163.95C1701.24 164.65 1700.39 165 1699.39 165H1687.69C1686.29 165 1685.29 164.65 1684.69 163.95C1684.09 163.25 1683.64 162.8 1683.34 162.6L1640.29 96.9V161.4C1640.29 162.4 1639.94 163.25 1639.24 163.95C1638.54 164.65 1637.64 165 1636.54 165H1623.94Z" fill="white"/>
</g>
<defs>
<clipPath id="clip0_502_7">
<rect width="1715" height="228" fill="white"/>
</clipPath>
</defs>
</svg>
